<svg width="20" height="20" viewBox="0 0 20 20" fill="none" xmlns="http://www.w3.org/2000/svg">
<g id="bx:bxl-twitter">
<path id="Vector" d="M16.3608 6.66412C16.3717 6.80995 16.3717 6.95496 16.3717 7.09996C16.3717 11.5375 12.9942 16.6508 6.82167 16.6508C4.92 16.6508 3.15333 16.1 1.66667 15.1433C1.93667 15.1741 2.19667 15.185 2.4775 15.185C3.98833 15.1886 5.45637 14.6834 6.645 13.7508C5.94452 13.7381 5.26548 13.507 4.7027 13.0897C4.13992 12.6725 3.72149 12.0899 3.50583 11.4233C3.71333 11.4541 3.92167 11.475 4.14 11.475C4.44083 11.475 4.74333 11.4333 5.02417 11.3608C4.26397 11.2073 3.5804 10.7952 3.08968 10.1947C2.59897 9.59414 2.33141 8.84216 2.3325 8.06662V8.02495C2.78 8.27412 3.29917 8.42995 3.84917 8.45079C3.38841 8.14461 3.0106 7.72914 2.74945 7.24145C2.4883 6.75375 2.35193 6.209 2.3525 5.65579C2.3525 5.03245 2.51833 4.46079 2.80917 3.96245C3.65262 4.99997 4.70459 5.84876 5.89695 6.45384C7.08931 7.05892 8.39547 7.4068 9.73083 7.47496C9.67917 7.22495 9.6475 6.96579 9.6475 6.70579C9.64728 6.26492 9.73396 5.82834 9.90257 5.42099C10.0712 5.01364 10.3184 4.64352 10.6302 4.33178C10.9419 4.02004 11.312 3.7728 11.7194 3.60419C12.1267 3.43558 12.5633 3.3489 13.0042 3.34912C13.9708 3.34912 14.8433 3.75412 15.4567 4.40912C16.2081 4.2638 16.9288 3.98947 17.5867 3.59829C17.3362 4.37397 16.8115 5.03171 16.1108 5.44829C16.7773 5.37227 17.4287 5.197 18.0433 4.92829C17.5843 5.59754 17.0154 6.18441 16.3608 6.66412Z" fill="black"/>
</g>
</svg>
