<svg width="20" height="20" viewBox="0 0 20 20" fill="none" xmlns="http://www.w3.org/2000/svg">
<g id="bx:bxl-pinterest-alt">
<path id="Vector" d="M4.23083 7.88088C4.23083 7.23255 4.34416 6.62005 4.56749 6.04838C4.78087 5.49313 5.09789 4.98352 5.50166 4.54671C5.90461 4.11564 6.36572 3.74288 6.87166 3.43921C7.39076 3.12517 7.95274 2.88825 8.53999 2.73588C9.13434 2.57981 9.74634 2.50111 10.3608 2.50171C11.31 2.50171 12.1933 2.70255 13.0125 3.10255C13.821 3.49525 14.5091 4.09792 15.005 4.84755C15.5167 5.61005 15.7708 6.47255 15.7708 7.43421C15.7708 8.01088 15.7142 8.57505 15.5983 9.12671C15.4846 9.67807 15.3038 10.2134 15.06 10.7209C14.8276 11.2121 14.5238 11.6662 14.1583 12.0684C13.7911 12.4642 13.3463 12.7802 12.8517 12.9967C12.3147 13.2321 11.7338 13.3505 11.1475 13.3442C10.74 13.3442 10.3333 13.2484 9.93166 13.0559C9.52999 12.8642 9.24166 12.6009 9.06833 12.2634C9.00749 12.4975 8.92416 12.8359 8.81333 13.2784C8.70666 13.72 8.63499 14.005 8.60333 14.1342C8.56999 14.2625 8.50833 14.4767 8.41833 14.7734C8.35729 14.9928 8.27899 15.2071 8.18416 15.4142L7.89749 15.9759C7.77352 16.2169 7.63493 16.4501 7.48249 16.6742C7.33166 16.8925 7.14499 17.1534 6.92249 17.4534L6.79833 17.4975L6.71583 17.4075C6.62666 16.4634 6.58083 15.8984 6.58083 15.7117C6.58083 15.1592 6.64666 14.5392 6.77666 13.8509C6.90416 13.1634 7.10583 12.2992 7.37666 11.26C7.64749 10.2217 7.80249 9.61088 7.84416 9.43005C7.65333 9.04088 7.55666 8.53255 7.55666 7.90755C7.55666 7.40838 7.71249 6.94088 8.02499 6.50088C8.33833 6.06255 8.73416 5.84338 9.21416 5.84338C9.58166 5.84338 9.86666 5.96505 10.0708 6.20921C10.2758 6.45255 10.3758 6.75921 10.3758 7.13338C10.3758 7.53005 10.2442 8.10421 9.97916 8.85505C9.71416 9.60671 9.58249 10.1675 9.58249 10.54C9.58249 10.9175 9.71749 11.2334 9.98749 11.4809C10.2539 11.7285 10.6063 11.8627 10.97 11.855C11.3 11.855 11.6058 11.78 11.89 11.6292C12.1697 11.4828 12.4118 11.2738 12.5975 11.0184C13.0018 10.4636 13.2901 9.83299 13.445 9.16421C13.525 8.81255 13.5867 8.47838 13.625 8.16421C13.6658 7.84838 13.6833 7.55005 13.6833 7.26671C13.6833 6.22755 13.3533 5.41755 12.6975 4.83755C12.0383 4.25755 11.18 3.96921 10.1242 3.96921C8.92333 3.96921 7.91916 4.35755 7.11499 5.13671C6.30999 5.91338 5.90499 6.90088 5.90499 8.09838C5.90499 8.36255 5.94499 8.61755 6.02083 8.86421C6.09499 9.11005 6.17583 9.30588 6.26333 9.45088C6.34999 9.59338 6.43166 9.73255 6.50583 9.86088C6.58083 9.98921 6.61999 10.0809 6.61999 10.1359C6.61999 10.3042 6.57583 10.5234 6.48666 10.7942C6.39416 11.065 6.28499 11.2 6.15333 11.2C6.14083 11.2 6.08916 11.1909 5.99916 11.1717C5.68746 11.0787 5.40597 10.9047 5.18333 10.6675C4.94702 10.4218 4.76054 10.1325 4.63416 9.81588C4.50814 9.50034 4.40999 9.17437 4.34083 8.84171C4.2661 8.52694 4.22918 8.20439 4.23083 7.88088Z" fill="black"/>
</g>
</svg>
