<svg width="20" height="20" viewBox="0 0 20 20" fill="none" xmlns="http://www.w3.org/2000/svg">
<g id="bx:bxl-tiktok">
<path id="Vector" d="M16.325 5.57508C15.4943 5.39241 14.7428 4.95128 14.1784 4.31499C13.614 3.67871 13.2656 2.87997 13.1833 2.03341V1.66675H10.3083V13.0584C10.3089 13.5639 10.1504 14.0567 9.85537 14.4671C9.56029 14.8775 9.14356 15.1847 8.66422 15.3451C8.18487 15.5055 7.66721 15.511 7.18456 15.3608C6.70191 15.2107 6.27874 14.9124 5.975 14.5084C5.70287 14.1508 5.53624 13.7241 5.49394 13.2767C5.45164 12.8293 5.53537 12.379 5.73565 11.9767C5.93593 11.5745 6.24477 11.2362 6.62726 11.0003C7.00974 10.7644 7.45061 10.6402 7.9 10.6417C8.14853 10.6403 8.39583 10.6769 8.63333 10.7501V7.83341C8.35695 7.79919 8.07842 7.78526 7.8 7.79175C6.77442 7.81915 5.7791 8.14503 4.9359 8.72947C4.09271 9.31392 3.43824 10.1316 3.05265 11.0823C2.66705 12.033 2.56706 13.0755 2.76493 14.0822C2.96279 15.0889 3.44992 16.016 4.16667 16.7501C4.90124 17.4969 5.84124 18.0085 6.86724 18.2199C7.89324 18.4313 8.95893 18.3329 9.92888 17.9372C10.8988 17.5416 11.7293 16.8665 12.3147 15.9978C12.9001 15.1291 13.2141 14.106 13.2167 13.0584V7.22508C14.3762 8.05337 15.7667 8.49645 17.1917 8.49175V5.65841C16.9117 5.65957 16.6325 5.63164 16.3583 5.57508H16.325Z" fill="black"/>
</g>
</svg>
