<svg width="30" height="30" viewBox="0 0 30 30" fill="none" xmlns="http://www.w3.org/2000/svg">
<g id="bx:bx-crown">
<path id="Vector" d="M14.0238 4.21874L10 9.24874L5.97625 4.21874C5.81373 4.01785 5.59306 3.87213 5.34447 3.80158C5.09589 3.73102 4.83157 3.73908 4.58774 3.82464C4.34392 3.91021 4.13253 4.06909 3.98255 4.27951C3.83257 4.48993 3.75134 4.74159 3.75 4.99999V23.75C3.75 25.1287 4.87125 26.25 6.25 26.25H23.75C25.1287 26.25 26.25 25.1287 26.25 23.75V4.99999C26.2487 4.74159 26.1674 4.48993 26.0175 4.27951C25.8675 4.06909 25.6561 3.91021 25.4123 3.82464C25.1684 3.73908 24.9041 3.73102 24.6555 3.80158C24.4069 3.87213 24.1863 4.01785 24.0238 4.21874L20 9.24874L15.9762 4.21874C15.5 3.62624 14.5 3.62624 14.0238 4.21874ZM6.25 23.75V21.25H23.7512V23.75H6.25ZM19.0238 12.0312C19.5 12.625 20.5012 12.625 20.9775 12.0312L23.75 8.56374L23.7512 18.75H6.25V8.56374L9.02375 12.0312C9.5 12.625 10.5012 12.625 10.9775 12.0312L15 7.00124L19.0238 12.0312Z" fill="black"/>
</g>
</svg>
