<svg width="30" height="30" viewBox="0 0 30 30" fill="none" xmlns="http://www.w3.org/2000/svg">
<g id="bx:bx-star">
<path id="Vector" d="M8.145 17.9038L6.2825 25.9688C6.22483 26.213 6.24214 26.4689 6.33218 26.7031C6.42222 26.9373 6.5808 27.139 6.78721 27.2816C6.99362 27.4243 7.23827 27.5015 7.48919 27.503C7.74012 27.5044 7.98566 27.4302 8.19375 27.29L15 22.7525L21.8063 27.29C22.0192 27.4314 22.2703 27.5041 22.5258 27.4985C22.7813 27.4929 23.029 27.4092 23.2355 27.2587C23.442 27.1081 23.5975 26.8979 23.681 26.6563C23.7645 26.4148 23.772 26.1535 23.7025 25.9075L21.4163 17.9075L27.0863 12.805C27.2679 12.6415 27.3975 12.4283 27.4593 12.1919C27.521 11.9555 27.5121 11.7061 27.4336 11.4747C27.3552 11.2433 27.2106 11.0399 27.0178 10.8898C26.8249 10.7397 26.5924 10.6493 26.3488 10.63L19.2225 10.0625L16.1388 3.23625C16.0404 3.01645 15.8806 2.8298 15.6785 2.69883C15.4765 2.56786 15.2408 2.49817 15 2.49817C14.7592 2.49817 14.5236 2.56786 14.3215 2.69883C14.1194 2.8298 13.9596 3.01645 13.8613 3.23625L10.7775 10.0625L3.65125 10.6288C3.41182 10.6477 3.18292 10.7353 2.99195 10.8809C2.80097 11.0266 2.65599 11.2242 2.57437 11.45C2.49274 11.6759 2.47792 11.9205 2.53168 12.1546C2.58544 12.3887 2.7055 12.6024 2.8775 12.77L8.145 17.9038ZM11.7113 12.4963C11.9344 12.4787 12.1487 12.4014 12.3316 12.2725C12.5146 12.1436 12.6595 11.9679 12.7513 11.7638L15 6.7875L17.2488 11.7638C17.3405 11.9679 17.4854 12.1436 17.6684 12.2725C17.8514 12.4014 18.0656 12.4787 18.2888 12.4963L23.2538 12.89L19.165 16.57C18.81 16.89 18.6688 17.3825 18.7988 17.8425L20.365 23.3238L15.695 20.21C15.49 20.0724 15.2487 19.999 15.0019 19.999C14.755 19.999 14.5137 20.0724 14.3088 20.21L9.42875 23.4638L10.7413 17.7813C10.7894 17.5723 10.7829 17.3544 10.7225 17.1486C10.6621 16.9428 10.5497 16.7561 10.3963 16.6063L6.59875 12.9038L11.7113 12.4963Z" fill="black"/>
</g>
</svg>
