<svg width="30" height="30" viewBox="0 0 30 30" fill="none" xmlns="http://www.w3.org/2000/svg">
<g id="bx:bx-purchase-tag">
<path id="Vector" d="M17.1338 4.11625C17.0179 3.99995 16.8801 3.90771 16.7285 3.84486C16.5768 3.782 16.4142 3.74976 16.25 3.75H5C4.66848 3.75 4.35054 3.8817 4.11612 4.11612C3.8817 4.35054 3.75 4.66848 3.75 5V16.25C3.75 16.5825 3.88125 16.9 4.11625 17.1338L14.1163 27.1338C14.2321 27.2502 14.3698 27.3427 14.5214 27.4057C14.6731 27.4688 14.8357 27.5013 15 27.5013C15.1643 27.5013 15.3269 27.4688 15.4786 27.4057C15.6302 27.3427 15.7679 27.2502 15.8838 27.1338L27.1338 15.8838C27.2499 15.7678 27.3421 15.63 27.405 15.4784C27.4679 15.3267 27.5003 15.1642 27.5003 15C27.5003 14.8358 27.4679 14.6733 27.405 14.5216C27.3421 14.37 27.2499 14.2322 27.1338 14.1163L17.1338 4.11625ZM15 24.4825L6.25 15.7325V6.25H15.7325L24.4825 15L15 24.4825Z" fill="black"/>
<path id="Vector_2" d="M10.62 12.5C11.659 12.5 12.5013 11.6577 12.5013 10.6188C12.5013 9.57977 11.659 8.7375 10.62 8.7375C9.58103 8.7375 8.73877 9.57977 8.73877 10.6188C8.73877 11.6577 9.58103 12.5 10.62 12.5Z" fill="black"/>
</g>
</svg>
