<svg width="30" height="30" viewBox="0 0 30 30" fill="none" xmlns="http://www.w3.org/2000/svg">
<g id="bx:bx-map-pin">
<path id="Vector" d="M15 21.25L16.25 18.75V12.3225C18.4012 11.7638 20 9.8225 20 7.5C20 4.7425 17.7575 2.5 15 2.5C12.2425 2.5 10 4.7425 10 7.5C10 9.8225 11.5988 11.7638 13.75 12.3225V18.75L15 21.25ZM12.5 7.5C12.5 6.12125 13.6212 5 15 5C16.3787 5 17.5 6.12125 17.5 7.5C17.5 8.87875 16.3787 10 15 10C13.6212 10 12.5 8.87875 12.5 7.5Z" fill="black"/>
<path id="Vector_2" d="M20.3337 13.2037L19.6675 15.6137C22.9062 16.5087 25 18.23 25 20C25 22.365 20.8937 25 15 25C9.10625 25 5 22.365 5 20C5 18.23 7.09375 16.5087 10.3338 15.6125L9.6675 13.2025C5.24625 14.425 2.5 17.0287 2.5 20C2.5 24.205 7.99125 27.5 15 27.5C22.0087 27.5 27.5 24.205 27.5 20C27.5 17.0287 24.7537 14.425 20.3337 13.2037Z" fill="black"/>
</g>
</svg>
