<svg width="30" height="30" viewBox="0 0 30 30" fill="none" xmlns="http://www.w3.org/2000/svg">
<g id="mdi:truck-delivery-outline">
<path id="Vector" d="M22.5 23.125C23.5375 23.125 24.375 22.2875 24.375 21.25C24.375 20.2125 23.5375 19.375 22.5 19.375C21.4625 19.375 20.625 20.2125 20.625 21.25C20.625 22.2875 21.4625 23.125 22.5 23.125ZM24.375 11.875H21.25V15H26.825L24.375 11.875ZM7.5 23.125C8.5375 23.125 9.375 22.2875 9.375 21.25C9.375 20.2125 8.5375 19.375 7.5 19.375C6.4625 19.375 5.625 20.2125 5.625 21.25C5.625 22.2875 6.4625 23.125 7.5 23.125ZM25 10L28.75 15V21.25H26.25C26.25 23.325 24.575 25 22.5 25C20.425 25 18.75 23.325 18.75 21.25H11.25C11.25 23.325 9.575 25 7.5 25C5.425 25 3.75 23.325 3.75 21.25H1.25V7.5C1.25 6.1125 2.3625 5 3.75 5H21.25V10H25ZM3.75 7.5V18.75H4.7C5.3875 17.9875 6.3875 17.5 7.5 17.5C8.6125 17.5 9.6125 17.9875 10.3 18.75H18.75V7.5H3.75ZM12.5 8.75L16.875 13.125L12.5 17.5V14.375H6.25V11.875H12.5V8.75Z" fill="black"/>
</g>
</svg>
