<svg width="20" height="20" viewBox="0 0 20 20" fill="none" xmlns="http://www.w3.org/2000/svg">
<g id="bx:bx-support">
<path id="Vector" d="M10 1.66666C5.40502 1.66666 1.66669 5.40499 1.66669 9.99999V13.4525C1.66669 14.3058 2.41419 15 3.33335 15H4.16669C4.3877 15 4.59966 14.9122 4.75594 14.7559C4.91222 14.5996 5.00002 14.3877 5.00002 14.1667V9.88082C5.00002 9.65981 4.91222 9.44785 4.75594 9.29157C4.59966 9.13529 4.3877 9.04749 4.16669 9.04749H3.41002C3.87335 5.82249 6.64835 3.33332 10 3.33332C13.3517 3.33332 16.1267 5.82249 16.59 9.04749H15.8334C15.6123 9.04749 15.4004 9.13529 15.2441 9.29157C15.0878 9.44785 15 9.65981 15 9.88082V15C15 15.9192 14.2525 16.6667 13.3334 16.6667H11.6667V15.8333H8.33335V18.3333H13.3334C15.1717 18.3333 16.6667 16.8383 16.6667 15C17.5859 15 18.3334 14.3058 18.3334 13.4525V9.99999C18.3334 5.40499 14.595 1.66666 10 1.66666Z" fill="#999999"/>
</g>
</svg>
