<svg width="20" height="20" viewBox="0 0 20 20" fill="none" xmlns="http://www.w3.org/2000/svg">
<g id="bx:bx-user">
<path id="Vector" d="M10 1.66666C9.17591 1.66666 8.37033 1.91103 7.68512 2.36887C6.99992 2.82671 6.46587 3.47745 6.1505 4.23881C5.83514 5.00017 5.75262 5.83794 5.91339 6.6462C6.07417 7.45445 6.471 8.19688 7.05372 8.7796C7.63644 9.36232 8.37887 9.75916 9.18712 9.91993C9.99538 10.0807 10.8332 9.99819 11.5945 9.68282C12.3559 9.36746 13.0066 8.8334 13.4645 8.1482C13.9223 7.46299 14.1667 6.65741 14.1667 5.83332C14.1667 4.72825 13.7277 3.66845 12.9463 2.88704C12.1649 2.10564 11.1051 1.66666 10 1.66666ZM10 8.33332C9.50555 8.33332 9.0222 8.1867 8.61107 7.912C8.19995 7.63729 7.87952 7.24685 7.6903 6.79003C7.50108 6.33322 7.45157 5.83055 7.54804 5.3456C7.6445 4.86064 7.8826 4.41519 8.23223 4.06556C8.58186 3.71592 9.02732 3.47782 9.51227 3.38136C9.99723 3.2849 10.4999 3.33441 10.9567 3.52362C11.4135 3.71284 11.804 4.03327 12.0787 4.4444C12.3534 4.85552 12.5 5.33887 12.5 5.83332C12.5 6.49636 12.2366 7.13225 11.7678 7.60109C11.2989 8.06993 10.663 8.33332 10 8.33332ZM17.5 17.5V16.6667C17.5 15.1196 16.8854 13.6358 15.7915 12.5419C14.6975 11.4479 13.2138 10.8333 11.6667 10.8333H8.33333C6.78624 10.8333 5.30251 11.4479 4.20854 12.5419C3.11458 13.6358 2.5 15.1196 2.5 16.6667V17.5H4.16667V16.6667C4.16667 15.5616 4.60565 14.5018 5.38705 13.7204C6.16846 12.939 7.22826 12.5 8.33333 12.5H11.6667C12.7717 12.5 13.8315 12.939 14.6129 13.7204C15.3943 14.5018 15.8333 15.5616 15.8333 16.6667V17.5H17.5Z" fill="#999999"/>
</g>
</svg>
