<svg width="20" height="20" viewBox="0 0 20 20" fill="none" xmlns="http://www.w3.org/2000/svg">
<g id="bx:bx-search">
<path id="Vector" d="M8.33335 15C9.8125 14.9997 11.249 14.5045 12.4142 13.5933L16.0775 17.2567L17.2559 16.0783L13.5925 12.415C14.5042 11.2497 14.9997 9.81285 15 8.33332C15 4.65749 12.0092 1.66666 8.33335 1.66666C4.65752 1.66666 1.66669 4.65749 1.66669 8.33332C1.66669 12.0092 4.65752 15 8.33335 15ZM8.33335 3.33332C11.0909 3.33332 13.3334 5.57582 13.3334 8.33332C13.3334 11.0908 11.0909 13.3333 8.33335 13.3333C5.57585 13.3333 3.33335 11.0908 3.33335 8.33332C3.33335 5.57582 5.57585 3.33332 8.33335 3.33332Z" fill="#999999"/>
</g>
</svg>
