<svg width="20" height="20" viewBox="0 0 20 20" fill="none" xmlns="http://www.w3.org/2000/svg">
<g id="bx:bx-heart">
<path id="Vector" d="M10 3.82916C9.09203 2.99424 7.90353 2.53086 6.67002 2.53082C6.01714 2.5315 5.37084 2.66129 4.76831 2.91271C4.16577 3.16414 3.61891 3.53223 3.15919 3.99582C1.19836 5.96499 1.19919 9.04499 3.16086 11.0058L9.27086 17.1158C9.41253 17.365 9.68586 17.5258 10 17.5258C10.129 17.5246 10.2559 17.4931 10.3706 17.4339C10.4852 17.3747 10.5843 17.2894 10.66 17.185L16.8392 11.0058C18.8009 9.04416 18.8009 5.96499 16.8375 3.99249C16.378 3.52975 15.8316 3.1624 15.2297 2.91156C14.6277 2.66071 13.9821 2.53132 13.33 2.53082C12.0965 2.53102 10.9081 2.99438 10 3.82916ZM15.6592 5.17082C16.9617 6.47999 16.9625 8.52499 15.6609 9.82749L10 15.4883L4.33919 9.82749C3.03752 8.52499 3.03836 6.47999 4.33752 5.17416C4.97086 4.54416 5.79919 4.19749 6.67002 4.19749C7.54086 4.19749 8.36586 4.54416 8.99419 5.17249L9.41086 5.58916C9.48818 5.66661 9.58002 5.72806 9.68111 5.76998C9.78221 5.81191 9.89058 5.83349 10 5.83349C10.1095 5.83349 10.2178 5.81191 10.3189 5.76998C10.42 5.72806 10.5119 5.66661 10.5892 5.58916L11.0059 5.17249C12.2659 3.91499 14.4009 3.91832 15.6592 5.17082Z" fill="#999999"/>
</g>
</svg>
