<svg width="20" height="20" viewBox="0 0 20 20" fill="none" xmlns="http://www.w3.org/2000/svg">
<g id="bx:bx-shopping-bag">
<path id="Vector" d="M4.16667 18.3333H15.8333C16.7525 18.3333 17.5 17.5858 17.5 16.6667V7.49999C17.5 7.27898 17.4122 7.06701 17.2559 6.91073C17.0996 6.75445 16.8877 6.66666 16.6667 6.66666H14.1667V5.83332C14.1667 3.53582 12.2975 1.66666 10 1.66666C7.7025 1.66666 5.83333 3.53582 5.83333 5.83332V6.66666H3.33333C3.11232 6.66666 2.90036 6.75445 2.74408 6.91073C2.5878 7.06701 2.5 7.27898 2.5 7.49999V16.6667C2.5 17.5858 3.2475 18.3333 4.16667 18.3333ZM7.5 5.83332C7.5 4.45499 8.62167 3.33332 10 3.33332C11.3783 3.33332 12.5 4.45499 12.5 5.83332V6.66666H7.5V5.83332ZM4.16667 8.33332H5.83333V9.99999H7.5V8.33332H12.5V9.99999H14.1667V8.33332H15.8333L15.835 16.6667H4.16667V8.33332Z" fill="#999999"/>
</g>
</svg>
