<svg width="193" height="17" viewBox="0 0 193 17" fill="none" xmlns="http://www.w3.org/2000/svg">
<g id="Logo">
<path id="Vector" d="M8.85573 2.3274V17H7.38961V2.3274H0V1H16.2454V2.3274H8.85573Z" fill="black"/>
<path id="Vector_2" d="M40.3128 17V9.22124H25.7583V17H24.2805V1.00001H25.7583V7.89355H40.3128V1H41.7908V17H40.3128Z" fill="black"/>
<path id="Vector_3" d="M53.5857 10.1528V17H52.1078V1.00001H60.1952C61.2626 0.984026 62.3287 1.07961 63.3756 1.28516C64.1486 1.43124 64.8854 1.72387 65.5451 2.14678C66.0849 2.50354 66.5129 3.00171 66.7807 3.58516C67.0534 4.22213 67.1863 4.90863 67.1709 5.59973C67.2241 6.64037 66.8827 7.66336 66.2131 8.47003C65.5747 9.18837 64.5461 9.67945 63.1271 9.94324L68.6724 17H66.8161L61.5783 10.1062C61.3575 10.1219 61.133 10.1335 60.9046 10.141C60.6758 10.1489 60.4394 10.1528 60.1952 10.1528H53.5857ZM65.6575 5.59973C65.6825 5.02467 65.5561 4.453 65.2906 3.94025C65.0142 3.4904 64.5935 3.14411 64.0949 2.95614C63.3997 2.69108 62.6674 2.53211 61.9234 2.48474C61.0278 2.40298 59.9291 2.36215 58.6275 2.36225H53.5857V8.79029H58.5802C59.882 8.79029 60.9826 8.75339 61.8821 8.6796C62.631 8.63829 63.3692 8.48522 64.0715 8.22562C64.5731 8.04395 64.9996 7.70409 65.2846 7.25893C65.556 6.74817 65.6847 6.17556 65.6575 5.59973Z" fill="black"/>
<path id="Vector_4" d="M77.1211 17V1H90.6587V2.36224H78.7289V7.8705H90.0557V9.19791H78.7289V15.6375H90.8361V17L77.1211 17Z" fill="black"/>
<path id="Vector_5" d="M115.122 17L112.888 12.7728H101.857L99.622 17H98.0021L106.503 1H108.241L116.742 17H115.122ZM107.378 2.40888L102.578 11.4454H112.166L107.378 2.40888Z" fill="black"/>
<path id="Vector_6" d="M142.506 8.98835C142.519 9.90861 142.41 10.8266 142.181 11.719C141.991 12.4557 141.681 13.1575 141.265 13.7976C140.88 14.378 140.394 14.8866 139.828 15.2998C139.253 15.7173 138.62 16.0506 137.948 16.2895C137.221 16.5474 136.468 16.7289 135.702 16.8312C134.858 16.9462 134.006 17.0026 133.154 17H124.771V1.00001H133.13C134.379 0.991091 135.624 1.1199 136.843 1.38404C137.917 1.60964 138.93 2.05615 139.816 2.69431C140.676 3.3368 141.356 4.18429 141.791 5.15697C142.304 6.36914 142.548 7.67558 142.506 8.98835ZM140.993 8.99424C141.004 8.21729 140.916 7.44204 140.733 6.68637C140.581 6.06983 140.329 5.48147 139.987 4.94403C139.674 4.46165 139.273 4.04077 138.804 3.70286C138.321 3.35992 137.791 3.08706 137.23 2.89265C136.613 2.67909 135.974 2.5326 135.325 2.4558C134.599 2.36779 133.868 2.32491 133.136 2.32741H126.249V15.6726H133.136C134.205 15.6816 135.272 15.5781 136.319 15.3638C137.214 15.187 138.06 14.8211 138.798 14.2915C139.508 13.7575 140.065 13.0505 140.413 12.2402C140.832 11.2093 141.03 10.1041 140.993 8.99424Z" fill="black"/>
<path id="Vector_7" d="M151.653 17V1H165.19V2.36224H153.261V7.8705H164.587V9.19791H153.261V15.6375H165.368V17L151.653 17Z" fill="black"/>
<path id="Vector_8" d="M192.509 8.98835C192.522 9.90861 192.413 10.8266 192.184 11.719C191.994 12.4557 191.684 13.1575 191.268 13.7976C190.883 14.378 190.397 14.8866 189.831 15.2998C189.257 15.7173 188.623 16.0506 187.952 16.2895C187.224 16.5474 186.471 16.7289 185.705 16.8312C184.861 16.9462 184.009 17.0026 183.157 17H174.774V1.00001H183.134C184.382 0.991091 185.627 1.1199 186.846 1.38404C187.92 1.60964 188.933 2.05615 189.82 2.69431C190.679 3.3368 191.359 4.18429 191.794 5.15697C192.308 6.36914 192.551 7.67558 192.509 8.98835ZM190.996 8.99424C191.007 8.21729 190.919 7.44204 190.736 6.68637C190.584 6.06983 190.332 5.48147 189.99 4.94403C189.677 4.46165 189.276 4.04077 188.807 3.70286C188.324 3.35991 187.794 3.08706 187.233 2.89265C186.616 2.67909 185.977 2.5326 185.328 2.4558C184.602 2.36779 183.871 2.32491 183.139 2.32741H176.252V15.6726H183.139C184.208 15.6816 185.275 15.5781 186.322 15.3638C187.217 15.187 188.063 14.8211 188.801 14.2915C189.511 13.7575 190.068 13.0505 190.416 12.2402C190.835 11.2093 191.033 10.1041 190.996 8.99424Z" fill="black"/>
</g>
</svg>
