<svg width="20" height="20" viewBox="0 0 20 20" fill="none" xmlns="http://www.w3.org/2000/svg">
<g id="ant-design:right-outlined">
<path id="Vector" d="M14.9551 9.50772L6.15039 2.63077C6.12739 2.61265 6.09974 2.6014 6.07062 2.59829C6.0415 2.59518 6.0121 2.60035 5.98579 2.6132C5.95948 2.62605 5.93733 2.64606 5.92187 2.67093C5.90642 2.69581 5.8983 2.72453 5.89844 2.75381V4.26358C5.89844 4.35928 5.94336 4.45108 6.01758 4.50967L13.0488 9.99991L6.01758 15.4901C5.94141 15.5487 5.89844 15.6405 5.89844 15.7362V17.246C5.89844 17.3769 6.04883 17.4491 6.15039 17.3691L14.9551 10.4921C15.0299 10.4337 15.0905 10.3591 15.1321 10.2738C15.1737 10.1885 15.1954 10.0948 15.1954 9.99991C15.1954 9.905 15.1737 9.81134 15.1321 9.72605C15.0905 9.64077 15.0299 9.5661 14.9551 9.50772Z" fill="black"/>
</g>
</svg>
