<svg width="50" height="50" viewBox="0 0 50 50" fill="none" xmlns="http://www.w3.org/2000/svg">
<g id="ant-design:left-outlined">
<path id="Vector" d="M35.3516 10.6592V6.88477C35.3516 6.55762 34.9756 6.37696 34.7217 6.57715L12.71 23.7695C12.523 23.915 12.3716 24.1012 12.2675 24.314C12.1634 24.5269 12.1093 24.7606 12.1093 24.9976C12.1093 25.2345 12.1634 25.4683 12.2675 25.6811C12.3716 25.8939 12.523 26.0801 12.71 26.2256L34.7217 43.418C34.9805 43.6182 35.3516 43.4375 35.3516 43.1104V39.3359C35.3516 39.0967 35.2393 38.8672 35.0537 38.7207L17.4756 25L35.0537 11.2744C35.2393 11.1279 35.3516 10.8984 35.3516 10.6592Z" fill="white"/>
</g>
</svg>
