<svg width="50" height="50" viewBox="0 0 50 50" fill="none" xmlns="http://www.w3.org/2000/svg">
<g id="ant-design:right-outlined">
<path id="Vector" d="M37.3877 23.7695L15.376 6.57716C15.3185 6.53187 15.2493 6.50373 15.1765 6.49596C15.1038 6.4882 15.0303 6.50112 14.9645 6.53324C14.8987 6.56536 14.8433 6.61539 14.8047 6.67757C14.7661 6.73975 14.7458 6.81157 14.7461 6.88477V10.6592C14.7461 10.8984 14.8584 11.1279 15.044 11.2744L32.6221 25L15.044 38.7256C14.8535 38.8721 14.7461 39.1016 14.7461 39.3408V43.1152C14.7461 43.4424 15.1221 43.6231 15.376 43.4229L37.3877 26.2305C37.5748 26.0845 37.7261 25.8979 37.8302 25.6846C37.9343 25.4714 37.9884 25.2373 37.9884 25C37.9884 24.7627 37.9343 24.5286 37.8302 24.3154C37.7261 24.1021 37.5748 23.9155 37.3877 23.7695Z" fill="white"/>
</g>
</svg>
